<?xml version="1.0" encoding="UTF-8" standalone="no"?>
<!DOCTYPE svg PUBLIC "-//W3C//DTD SVG 1.1//EN"
 "http://www.w3.org/Graphics/SVG/1.1/DTD/svg11.dtd">
<!-- Generated by graphviz version 2.40.1 (20161225.0304)
 -->
<!-- Title: output Pages: 1 -->
<svg width="577pt" height="587pt"
 viewBox="0.00 0.00 577.00 587.00" xmlns="http://www.w3.org/2000/svg" xmlns:xlink="http://www.w3.org/1999/xlink">
<g id="graph0" class="graph" transform="scale(1 1) rotate(0) translate(4 583)">
<title>output</title>
<polygon fill="#ffffff" stroke="transparent" points="-4,4 -4,-583 573,-583 573,4 -4,4"/>
<!-- Legend -->
<g id="node1" class="node">
<title>Legend</title>
<polygon fill="#e0e0e0" stroke="transparent" points="8.5,-524.5 8.5,-547.5 209.5,-547.5 209.5,-524.5 8.5,-524.5"/>
<polygon fill="none" stroke="#000000" points="8.5,-524.5 8.5,-547.5 209.5,-547.5 209.5,-524.5 8.5,-524.5"/>
<text text-anchor="start" x="93" y="-532.3" font-family="Times,serif" font-size="14.00" fill="#000000">Layer</text>
<polygon fill="#88ffff" stroke="transparent" points="8.5,-486.5 8.5,-524.5 89.5,-524.5 89.5,-486.5 8.5,-486.5"/>
<polygon fill="none" stroke="#000000" points="8.5,-486.5 8.5,-524.5 89.5,-524.5 89.5,-486.5 8.5,-486.5"/>
<text text-anchor="start" x="12.5" y="-509.3" font-family="Times,serif" font-size="14.00" fill="#000000"> Complexity </text>
<text text-anchor="start" x="15" y="-494.3" font-family="Times,serif" font-size="14.00" fill="#000000"> (MFLOPs) </text>
<polygon fill="#ff88ff" stroke="transparent" points="89.5,-486.5 89.5,-524.5 164.5,-524.5 164.5,-486.5 89.5,-486.5"/>
<polygon fill="none" stroke="#000000" points="89.5,-486.5 89.5,-524.5 164.5,-524.5 164.5,-486.5 89.5,-486.5"/>
<text text-anchor="start" x="93.5" y="-509.3" font-family="Times,serif" font-size="14.00" fill="#000000"> Bandwidth </text>
<text text-anchor="start" x="103" y="-494.3" font-family="Times,serif" font-size="14.00" fill="#000000"> (MB/s) </text>
<polygon fill="#ffff88" stroke="transparent" points="164.5,-486.5 164.5,-524.5 209.5,-524.5 209.5,-486.5 164.5,-486.5"/>
<polygon fill="none" stroke="#000000" points="164.5,-486.5 164.5,-524.5 209.5,-524.5 209.5,-486.5 164.5,-486.5"/>
<text text-anchor="start" x="168.5" y="-509.3" font-family="Times,serif" font-size="14.00" fill="#000000"> Time </text>
<text text-anchor="start" x="172" y="-494.3" font-family="Times,serif" font-size="14.00" fill="#000000"> (ms)</text>
</g>
<!-- Input -->
<g id="node2" class="node">
<title>Input</title>
<ellipse fill="none" stroke="#000000" cx="292.5" cy="-517.5" rx="57.6901" ry="18"/>
<text text-anchor="middle" x="292.5" y="-513.8" font-family="Times,serif" font-size="14.00" fill="#000000">input: (1, 28)</text>
</g>
<!-- input/Relu -->
<g id="node3" class="node">
<title>input/Relu</title>
<polygon fill="#a3a3a3" stroke="transparent" points="206.5,-393 206.5,-416 378.5,-416 378.5,-393 206.5,-393"/>
<polygon fill="none" stroke="#000000" points="206.5,-393 206.5,-416 378.5,-416 378.5,-393 206.5,-393"/>
<text text-anchor="start" x="263.5" y="-400.8" font-family="Times,serif" font-size="14.00" fill="#000000">input/Relu</text>
<polygon fill="#dddddd" stroke="transparent" points="206.5,-370 206.5,-393 378.5,-393 378.5,-370 206.5,-370"/>
<polygon fill="none" stroke="#000000" points="206.5,-370 206.5,-393 378.5,-393 378.5,-370 206.5,-370"/>
<text text-anchor="start" x="266.5" y="-377.8" font-family="Times,serif" font-size="14.00" fill="#000000">(64, 1, 1)</text>
<polygon fill="#7de4df" stroke="transparent" points="206.5,-332 206.5,-370 282.5,-370 282.5,-332 206.5,-332"/>
<polygon fill="none" stroke="#000000" points="206.5,-332 206.5,-370 282.5,-370 282.5,-332 206.5,-332"/>
<text text-anchor="start" x="215" y="-354.8" font-family="Times,serif" font-size="14.00" fill="#000000"> 0.003584 </text>
<text text-anchor="start" x="210.5" y="-339.8" font-family="Times,serif" font-size="14.00" fill="#000000"> (MFLOPs) </text>
<polygon fill="#fcdef9" stroke="transparent" points="282.5,-332 282.5,-370 338.5,-370 338.5,-332 282.5,-332"/>
<polygon fill="none" stroke="#000000" points="282.5,-332 282.5,-370 338.5,-370 338.5,-332 282.5,-332"/>
<text text-anchor="start" x="291" y="-354.8" font-family="Times,serif" font-size="14.00" fill="#000000"> 32.49 </text>
<text text-anchor="start" x="286.5" y="-339.8" font-family="Times,serif" font-size="14.00" fill="#000000"> (MB/s) </text>
<polygon fill="#ffff01" stroke="transparent" points="338.5,-332 338.5,-370 378.5,-370 378.5,-332 338.5,-332"/>
<polygon fill="none" stroke="#000000" points="338.5,-332 338.5,-370 378.5,-370 378.5,-332 338.5,-332"/>
<text text-anchor="start" x="342.5" y="-354.8" font-family="Times,serif" font-size="14.00" fill="#000000"> 0.11 </text>
<text text-anchor="start" x="343.5" y="-339.8" font-family="Times,serif" font-size="14.00" fill="#000000"> (ms)</text>
</g>
<!-- Input&#45;&gt;input/Relu -->
<g id="edge1" class="edge">
<title>Input&#45;&gt;input/Relu</title>
<path fill="none" stroke="#000000" d="M292.5,-499.3256C292.5,-481.8927 292.5,-454.6561 292.5,-430.0214"/>
<polygon fill="#000000" stroke="#000000" points="296.0001,-430.0195 292.5,-420.0196 289.0001,-430.0196 296.0001,-430.0195"/>
</g>
<!-- dense1/Relu -->
<g id="node4" class="node">
<title>dense1/Relu</title>
<polygon fill="#a3a3a3" stroke="transparent" points="206.5,-265 206.5,-288 378.5,-288 378.5,-265 206.5,-265"/>
<polygon fill="none" stroke="#000000" points="206.5,-265 206.5,-288 378.5,-288 378.5,-265 206.5,-265"/>
<text text-anchor="start" x="255.5" y="-272.8" font-family="Times,serif" font-size="14.00" fill="#000000">dense1/Relu</text>
<polygon fill="#dddddd" stroke="transparent" points="206.5,-242 206.5,-265 378.5,-265 378.5,-242 206.5,-242"/>
<polygon fill="none" stroke="#000000" points="206.5,-242 206.5,-265 378.5,-265 378.5,-242 206.5,-242"/>
<text text-anchor="start" x="266.5" y="-249.8" font-family="Times,serif" font-size="14.00" fill="#000000">(64, 1, 1)</text>
<polygon fill="#2ed1c6" stroke="transparent" points="206.5,-204 206.5,-242 282.5,-242 282.5,-204 206.5,-204"/>
<polygon fill="none" stroke="#000000" points="206.5,-204 206.5,-242 282.5,-242 282.5,-204 206.5,-204"/>
<text text-anchor="start" x="215" y="-226.8" font-family="Times,serif" font-size="14.00" fill="#000000"> 0.008192 </text>
<text text-anchor="start" x="210.5" y="-211.8" font-family="Times,serif" font-size="14.00" fill="#000000"> (MFLOPs) </text>
<polygon fill="#b1179d" stroke="transparent" points="282.5,-204 282.5,-242 338.5,-242 338.5,-204 282.5,-204"/>
<polygon fill="none" stroke="#000000" points="282.5,-204 282.5,-242 338.5,-242 338.5,-204 282.5,-204"/>
<text text-anchor="start" x="287.5" y="-226.8" font-family="Times,serif" font-size="14.00" fill="#000000"> 238.86 </text>
<text text-anchor="start" x="286.5" y="-211.8" font-family="Times,serif" font-size="14.00" fill="#000000"> (MB/s) </text>
<polygon fill="#ffffc8" stroke="transparent" points="338.5,-204 338.5,-242 378.5,-242 378.5,-204 338.5,-204"/>
<polygon fill="none" stroke="#000000" points="338.5,-204 338.5,-242 378.5,-242 378.5,-204 338.5,-204"/>
<text text-anchor="start" x="342.5" y="-226.8" font-family="Times,serif" font-size="14.00" fill="#000000"> 0.03 </text>
<text text-anchor="start" x="343.5" y="-211.8" font-family="Times,serif" font-size="14.00" fill="#000000"> (ms)</text>
</g>
<!-- input/Relu&#45;&gt;dense1/Relu -->
<g id="edge2" class="edge">
<title>input/Relu&#45;&gt;dense1/Relu</title>
<path fill="none" stroke="#000000" d="M292.5,-327.7891C292.5,-319.5417 292.5,-310.8661 292.5,-302.3724"/>
<polygon fill="#000000" stroke="#000000" points="296.0001,-302.1431 292.5,-292.1431 289.0001,-302.1431 296.0001,-302.1431"/>
</g>
<!-- dense2/BiasAdd -->
<g id="node5" class="node">
<title>dense2/BiasAdd</title>
<polygon fill="#a3a3a3" stroke="transparent" points="206.5,-137 206.5,-160 378.5,-160 378.5,-137 206.5,-137"/>
<polygon fill="none" stroke="#000000" points="206.5,-137 206.5,-160 378.5,-160 378.5,-137 206.5,-137"/>
<text text-anchor="start" x="244.5" y="-144.8" font-family="Times,serif" font-size="14.00" fill="#000000">dense2/BiasAdd</text>
<polygon fill="#dddddd" stroke="transparent" points="206.5,-114 206.5,-137 378.5,-137 378.5,-114 206.5,-114"/>
<polygon fill="none" stroke="#000000" points="206.5,-114 206.5,-137 378.5,-137 378.5,-114 206.5,-114"/>
<text text-anchor="start" x="270" y="-121.8" font-family="Times,serif" font-size="14.00" fill="#000000">(5, 1, 1)</text>
<polygon fill="#b1f1ef" stroke="transparent" points="206.5,-76 206.5,-114 282.5,-114 282.5,-76 206.5,-76"/>
<polygon fill="none" stroke="#000000" points="206.5,-76 206.5,-114 282.5,-114 282.5,-76 206.5,-76"/>
<text text-anchor="start" x="218.5" y="-98.8" font-family="Times,serif" font-size="14.00" fill="#000000"> 0.00064 </text>
<text text-anchor="start" x="210.5" y="-83.8" font-family="Times,serif" font-size="14.00" fill="#000000"> (MFLOPs) </text>
<polygon fill="#ffe5fc" stroke="transparent" points="282.5,-76 282.5,-114 338.5,-114 338.5,-76 282.5,-76"/>
<polygon fill="none" stroke="#000000" points="282.5,-76 282.5,-114 338.5,-114 338.5,-76 282.5,-76"/>
<text text-anchor="start" x="291" y="-98.8" font-family="Times,serif" font-size="14.00" fill="#000000"> 26.13 </text>
<text text-anchor="start" x="286.5" y="-83.8" font-family="Times,serif" font-size="14.00" fill="#000000"> (MB/s) </text>
<polygon fill="#ffffc8" stroke="transparent" points="338.5,-76 338.5,-114 378.5,-114 378.5,-76 338.5,-76"/>
<polygon fill="none" stroke="#000000" points="338.5,-76 338.5,-114 378.5,-114 378.5,-76 338.5,-76"/>
<text text-anchor="start" x="342.5" y="-98.8" font-family="Times,serif" font-size="14.00" fill="#000000"> 0.03 </text>
<text text-anchor="start" x="343.5" y="-83.8" font-family="Times,serif" font-size="14.00" fill="#000000"> (ms)</text>
</g>
<!-- dense1/Relu&#45;&gt;dense2/BiasAdd -->
<g id="edge3" class="edge">
<title>dense1/Relu&#45;&gt;dense2/BiasAdd</title>
<path fill="none" stroke="#000000" d="M292.5,-199.7891C292.5,-191.5417 292.5,-182.8661 292.5,-174.3724"/>
<polygon fill="#000000" stroke="#000000" points="296.0001,-174.1431 292.5,-164.1431 289.0001,-174.1431 296.0001,-174.1431"/>
</g>
<!-- Output -->
<g id="node6" class="node">
<title>Output</title>
<ellipse fill="none" stroke="#000000" cx="292.5" cy="-18" rx="66.8882" ry="18"/>
<text text-anchor="middle" x="292.5" y="-14.3" font-family="Times,serif" font-size="14.00" fill="#000000">output: [1, 1, 5]</text>
</g>
<!-- dense2/BiasAdd&#45;&gt;Output -->
<g id="edge4" class="edge">
<title>dense2/BiasAdd&#45;&gt;Output</title>
<path fill="none" stroke="#000000" d="M292.5,-71.8053C292.5,-63.0799 292.5,-54.1991 292.5,-46.2339"/>
<polygon fill="#000000" stroke="#000000" points="296.0001,-46.0404 292.5,-36.0405 289.0001,-46.0405 296.0001,-46.0404"/>
</g>
<!-- Summary -->
<g id="node7" class="node">
<title>Summary</title>
<polygon fill="#c60000" stroke="transparent" points="376.5,-551.5 376.5,-574.5 561.5,-574.5 561.5,-551.5 376.5,-551.5"/>
<polygon fill="none" stroke="#000000" points="376.5,-551.5 376.5,-574.5 561.5,-574.5 561.5,-551.5 376.5,-551.5"/>
<text text-anchor="start" x="441.5" y="-559.3" font-family="Times,serif" font-size="14.00" fill="#000000">Summary</text>
<polygon fill="#e2e2e2" stroke="transparent" points="376.5,-528.5 376.5,-551.5 561.5,-551.5 561.5,-528.5 376.5,-528.5"/>
<polygon fill="none" stroke="#000000" points="376.5,-528.5 376.5,-551.5 561.5,-551.5 561.5,-528.5 376.5,-528.5"/>
<text text-anchor="start" x="419" y="-536.3" font-family="Times,serif" font-size="14.00" fill="#000000">1 SHV Processors</text>
<polygon fill="#dadada" stroke="transparent" points="376.5,-505.5 376.5,-528.5 561.5,-528.5 561.5,-505.5 376.5,-505.5"/>
<polygon fill="none" stroke="#000000" points="376.5,-505.5 376.5,-528.5 561.5,-528.5 561.5,-505.5 376.5,-505.5"/>
<text text-anchor="start" x="405" y="-513.3" font-family="Times,serif" font-size="14.00" fill="#000000">Inference time 0.17 ms</text>
<polygon fill="#e2e2e2" stroke="transparent" points="376.5,-482.5 376.5,-505.5 561.5,-505.5 561.5,-482.5 376.5,-482.5"/>
<polygon fill="none" stroke="#000000" points="376.5,-482.5 376.5,-505.5 561.5,-505.5 561.5,-482.5 376.5,-482.5"/>
<text text-anchor="start" x="398.5" y="-490.3" font-family="Times,serif" font-size="14.00" fill="#000000">Bandwidth 71.74 MB/sec</text>
<polygon fill="#dadada" stroke="transparent" points="376.5,-459.5 376.5,-482.5 561.5,-482.5 561.5,-459.5 376.5,-459.5"/>
<polygon fill="none" stroke="#000000" points="376.5,-459.5 376.5,-482.5 561.5,-482.5 561.5,-459.5 376.5,-459.5"/>
<text text-anchor="start" x="380.5" y="-467.3" font-family="Times,serif" font-size="14.00" fill="#000000">This network is Compute bound</text>
</g>
</g>
</svg>
