<?xml version="1.0" encoding="UTF-8" standalone="no"?>
<!DOCTYPE svg PUBLIC "-//W3C//DTD SVG 1.1//EN"
 "http://www.w3.org/Graphics/SVG/1.1/DTD/svg11.dtd">
<!-- Generated by graphviz version 2.40.1 (20161225.0304)
 -->
<!-- Title: output Pages: 1 -->
<svg width="577pt" height="587pt"
 viewBox="0.00 0.00 577.00 587.00" xmlns="http://www.w3.org/2000/svg" xmlns:xlink="http://www.w3.org/1999/xlink">
<g id="graph0" class="graph" transform="scale(1 1) rotate(0) translate(4 583)">
<title>output</title>
<polygon fill="#ffffff" stroke="transparent" points="-4,4 -4,-583 573,-583 573,4 -4,4"/>
<!-- Input -->
<g id="node2" class="node">
<title>Input</title>
<ellipse fill="none" stroke="#000000" cx="292.5" cy="-517.5" rx="57.6901" ry="18"/>
<text text-anchor="middle" x="292.5" y="-513.8" font-family="Times,serif" font-size="12.00" fill="#000000">input: (1, 28)</text>
</g>
<!-- input/Relu -->
<g id="node3" class="node">
<title>input/Relu</title>
<polygon fill="#a3a3a3" stroke="transparent" points="206.5,-393 206.5,-416 378.5,-416 378.5,-393 206.5,-393"/>
<polygon fill="none" stroke="#000000" points="206.5,-393 206.5,-416 378.5,-416 378.5,-393 206.5,-393"/>
<text text-anchor="start" x="263.5" y="-400.8" font-family="Times,serif" font-size="12.00" fill="#000000">input/Relu</text>
<polygon fill="#dddddd" stroke="transparent" points="206.5,-370 206.5,-393 378.5,-393 378.5,-370 206.5,-370"/>
<polygon fill="none" stroke="#000000" points="206.5,-370 206.5,-393 378.5,-393 378.5,-370 206.5,-370"/>
<text text-anchor="start" x="266.5" y="-377.8" font-family="Times,serif" font-size="12.00" fill="#000000">(64, 1, 1)</text>
<polygon fill="#7de4df" stroke="transparent" points="206.5,-332 206.5,-370 282.5,-370 282.5,-332 206.5,-332"/>
<polygon fill="none" stroke="#000000" points="206.5,-332 206.5,-370 282.5,-370 282.5,-332 206.5,-332"/>
<text text-anchor="start" x="215" y="-354.8" font-family="Times,serif" font-size="12.00" fill="#000000"> 0.003584 </text>
<text text-anchor="start" x="210.5" y="-339.8" font-family="Times,serif" font-size="12.00" fill="#000000"> (MFLOPs) </text>
<polygon fill="#f3c7ee" stroke="transparent" points="282.5,-332 282.5,-370 338.5,-370 338.5,-332 282.5,-332"/>
<polygon fill="none" stroke="#000000" points="282.5,-332 282.5,-370 338.5,-370 338.5,-332 282.5,-332"/>
<text text-anchor="start" x="291" y="-354.8" font-family="Times,serif" font-size="12.00" fill="#000000"> 55.99 </text>
<text text-anchor="start" x="286.5" y="-339.8" font-family="Times,serif" font-size="12.00" fill="#000000"> (MB/s) </text>
<polygon fill="#ffff19" stroke="transparent" points="338.5,-332 338.5,-370 378.5,-370 378.5,-332 338.5,-332"/>
<polygon fill="none" stroke="#000000" points="338.5,-332 338.5,-370 378.5,-370 378.5,-332 338.5,-332"/>
<text text-anchor="start" x="342.5" y="-354.8" font-family="Times,serif" font-size="12.00" fill="#000000"> 0.06 </text>
<text text-anchor="start" x="343.5" y="-339.8" font-family="Times,serif" font-size="12.00" fill="#000000"> (ms)</text>
</g>
<!-- Input&#45;&gt;input/Relu -->
<g id="edge1" class="edge">
<title>Input&#45;&gt;input/Relu</title>
<path fill="none" stroke="#000000" d="M292.5,-499.3256C292.5,-481.8927 292.5,-454.6561 292.5,-430.0214"/>
<polygon fill="#000000" stroke="#000000" points="296.0001,-430.0195 292.5,-420.0196 289.0001,-430.0196 296.0001,-430.0195"/>
</g>
<!-- dense1/Relu -->
<g id="node4" class="node">
<title>dense1/Relu</title>
<polygon fill="#a3a3a3" stroke="transparent" points="206.5,-265 206.5,-288 378.5,-288 378.5,-265 206.5,-265"/>
<polygon fill="none" stroke="#000000" points="206.5,-265 206.5,-288 378.5,-288 378.5,-265 206.5,-265"/>
<text text-anchor="start" x="255.5" y="-272.8" font-family="Times,serif" font-size="12.00" fill="#000000">dense1/Relu</text>
<polygon fill="#dddddd" stroke="transparent" points="206.5,-242 206.5,-265 378.5,-265 378.5,-242 206.5,-242"/>
<polygon fill="none" stroke="#000000" points="206.5,-242 206.5,-265 378.5,-265 378.5,-242 206.5,-242"/>
<text text-anchor="start" x="266.5" y="-249.8" font-family="Times,serif" font-size="12.00" fill="#000000">(64, 1, 1)</text>
<polygon fill="#2ed1c6" stroke="transparent" points="206.5,-204 206.5,-242 282.5,-242 282.5,-204 206.5,-204"/>
<polygon fill="none" stroke="#000000" points="206.5,-204 206.5,-242 282.5,-242 282.5,-204 206.5,-204"/>
<text text-anchor="start" x="215" y="-226.8" font-family="Times,serif" font-size="12.00" fill="#000000"> 0.008192 </text>
<text text-anchor="start" x="210.5" y="-211.8" font-family="Times,serif" font-size="12.00" fill="#000000"> (MFLOPs) </text>
<polygon fill="#b2189e" stroke="transparent" points="282.5,-204 282.5,-242 338.5,-242 338.5,-204 282.5,-204"/>
<polygon fill="none" stroke="#000000" points="282.5,-204 282.5,-242 338.5,-242 338.5,-204 282.5,-204"/>
<text text-anchor="start" x="287.5" y="-226.8" font-family="Times,serif" font-size="12.00" fill="#000000"> 244.72 </text>
<text text-anchor="start" x="286.5" y="-211.8" font-family="Times,serif" font-size="12.00" fill="#000000"> (MB/s) </text>
<polygon fill="#ffffcd" stroke="transparent" points="338.5,-204 338.5,-242 378.5,-242 378.5,-204 338.5,-204"/>
<polygon fill="none" stroke="#000000" points="338.5,-204 338.5,-242 378.5,-242 378.5,-204 338.5,-204"/>
<text text-anchor="start" x="342.5" y="-226.8" font-family="Times,serif" font-size="12.00" fill="#000000"> 0.03 </text>
<text text-anchor="start" x="343.5" y="-211.8" font-family="Times,serif" font-size="12.00" fill="#000000"> (ms)</text>
</g>
<!-- input/Relu&#45;&gt;dense1/Relu -->
<g id="edge2" class="edge">
<title>input/Relu&#45;&gt;dense1/Relu</title>
<path fill="none" stroke="#000000" d="M292.5,-327.7891C292.5,-319.5417 292.5,-310.8661 292.5,-302.3724"/>
<polygon fill="#000000" stroke="#000000" points="296.0001,-302.1431 292.5,-292.1431 289.0001,-302.1431 296.0001,-302.1431"/>
</g>
<!-- dense2/BiasAdd -->
<g id="node5" class="node">
<title>dense2/BiasAdd</title>
<polygon fill="#a3a3a3" stroke="transparent" points="206.5,-137 206.5,-160 378.5,-160 378.5,-137 206.5,-137"/>
<polygon fill="none" stroke="#000000" points="206.5,-137 206.5,-160 378.5,-160 378.5,-137 206.5,-137"/>
<text text-anchor="start" x="244.5" y="-144.8" font-family="Times,serif" font-size="12.00" fill="#000000">dense2/BiasAdd</text>
<polygon fill="#dddddd" stroke="transparent" points="206.5,-114 206.5,-137 378.5,-137 378.5,-114 206.5,-114"/>
<polygon fill="none" stroke="#000000" points="206.5,-114 206.5,-137 378.5,-137 378.5,-114 206.5,-114"/>
<text text-anchor="start" x="270" y="-121.8" font-family="Times,serif" font-size="12.00" fill="#000000">(5, 1, 1)</text>
<polygon fill="#b1f1ef" stroke="transparent" points="206.5,-76 206.5,-114 282.5,-114 282.5,-76 206.5,-76"/>
<polygon fill="none" stroke="#000000" points="206.5,-76 206.5,-114 282.5,-114 282.5,-76 206.5,-76"/>
<text text-anchor="start" x="218.5" y="-98.8" font-family="Times,serif" font-size="12.00" fill="#000000"> 0.00064 </text>
<text text-anchor="start" x="210.5" y="-83.8" font-family="Times,serif" font-size="12.00" fill="#000000"> (MFLOPs) </text>
<polygon fill="#fee4fb" stroke="transparent" points="282.5,-76 282.5,-114 338.5,-114 338.5,-76 282.5,-76"/>
<polygon fill="none" stroke="#000000" points="282.5,-76 282.5,-114 338.5,-114 338.5,-76 282.5,-76"/>
<text text-anchor="start" x="291" y="-98.8" font-family="Times,serif" font-size="12.00" fill="#000000"> 24.53 </text>
<text text-anchor="start" x="286.5" y="-83.8" font-family="Times,serif" font-size="12.00" fill="#000000"> (MB/s) </text>
<polygon fill="#ffffcd" stroke="transparent" points="338.5,-76 338.5,-114 378.5,-114 378.5,-76 338.5,-76"/>
<polygon fill="none" stroke="#000000" points="338.5,-76 338.5,-114 378.5,-114 378.5,-76 338.5,-76"/>
<text text-anchor="start" x="342.5" y="-98.8" font-family="Times,serif" font-size="12.00" fill="#000000"> 0.03 </text>
<text text-anchor="start" x="343.5" y="-83.8" font-family="Times,serif" font-size="12.00" fill="#000000"> (ms)</text>
</g>
<!-- dense1/Relu&#45;&gt;dense2/BiasAdd -->
<g id="edge3" class="edge">
<title>dense1/Relu&#45;&gt;dense2/BiasAdd</title>
<path fill="none" stroke="#000000" d="M292.5,-199.7891C292.5,-191.5417 292.5,-182.8661 292.5,-174.3724"/>
<polygon fill="#000000" stroke="#000000" points="296.0001,-174.1431 292.5,-164.1431 289.0001,-174.1431 296.0001,-174.1431"/>
</g>
<!-- Output -->
<g id="node6" class="node">
<title>Output</title>
<ellipse fill="none" stroke="#000000" cx="292.5" cy="-18" rx="66.8882" ry="18"/>
<text text-anchor="middle" x="292.5" y="-14.3" font-family="Times,serif" font-size="12.00" fill="#000000">output: [1, 1, 5]</text>
</g>
<!-- dense2/BiasAdd&#45;&gt;Output -->
<g id="edge4" class="edge">
<title>dense2/BiasAdd&#45;&gt;Output</title>
<path fill="none" stroke="#000000" d="M292.5,-71.8053C292.5,-63.0799 292.5,-54.1991 292.5,-46.2339"/>
<polygon fill="#000000" stroke="#000000" points="296.0001,-46.0404 292.5,-36.0405 289.0001,-46.0405 296.0001,-46.0404"/>
</g>
</g>
</svg>
